<svg width="641" height="669" viewBox="0 0 641 669" fill="none" xmlns="http://www.w3.org/2000/svg">
<path d="M583.016 0H57.9837C25.9605 0 0 27.0623 0 60.4446V607.759C0 641.143 25.9605 668.205 57.9837 668.205H583.015C615.039 668.205 641 641.143 641 607.759V60.4446C641 27.0623 615.04 0 583.016 0ZM198.353 576.973C198.353 586.688 190.798 594.563 181.479 594.563H109.65C100.33 594.563 92.7755 586.688 92.7755 576.973V263.089C92.7755 253.374 100.33 245.499 109.65 245.499H181.479C190.798 245.499 198.353 253.374 198.353 263.089V576.973ZM145.564 215.911C107.878 215.911 77.3261 184.063 77.3261 144.777C77.3261 105.491 107.878 73.6425 145.564 73.6425C183.25 73.6425 213.802 105.491 213.802 144.777C213.802 184.063 183.252 215.911 145.564 215.911ZM573.729 578.389C573.729 587.321 566.782 594.563 558.214 594.563H481.136C472.568 594.563 465.621 587.321 465.621 578.389V431.16C465.621 409.197 471.801 334.916 410.561 334.916C363.058 334.916 353.423 385.759 351.488 408.576V578.389C351.488 587.321 344.543 594.563 335.973 594.563H261.426C252.858 594.563 245.911 587.321 245.911 578.389V261.672C245.911 252.741 252.858 245.499 261.426 245.499H335.973C344.541 245.499 351.488 252.741 351.488 261.672V289.057C369.102 261.501 395.279 240.232 451.014 240.232C574.435 240.232 573.729 360.432 573.729 426.476V578.389Z" fill="white"/>
</svg>
